<?xml version="1.0" encoding="UTF-8"?> <svg xmlns="http://www.w3.org/2000/svg" viewBox="0 0 234.12 74.05"><title>epa-award-logo</title><g id="Layer_2" data-name="Layer 2"><g id="Layer_1-2" data-name="Layer 1"><g id="Group_252" data-name="Group 252"><g id="Group_125" data-name="Group 125"><path id="Path_153" data-name="Path 153" d="M77,17.56a14.68,14.68,0,0,1-28.46,0h0a5.06,5.06,0,0,0,7.19,0,5.06,5.06,0,0,0,7.19,0,5.06,5.06,0,0,0,7.19,0,5.06,5.06,0,0,0,7.19,0m-.15-3.3a14.38,14.38,0,0,0-28.76,0H61.22a4.06,4.06,0,0,1-2.7-3.89,4.2,4.2,0,1,1,8.39,0,4.3,4.3,0,0,1-2.55,3.89H77.1M63.62,46.16c.3-12.27,9.88-22.91,22.16-23.36A23.46,23.46,0,0,1,63.62,46.17m-1.8,0c-.3-12.28-9.89-22.92-22.32-23.37A23.71,23.71,0,0,0,61.82,46.17" style="fill: #fff"></path><path id="Path_154" data-name="Path 154" d="M119.18.93H90V45.12h29.2V38.23H99.11V26.4h20.07v-7H99.11V7.67h20.07V.93" style="fill: #fff"></path><path id="Path_155" data-name="Path 155" d="M130.12,19.36h9c3,0,5.1-2.85,5.1-5.84a5.46,5.46,0,0,0-4.95-5.7h-8.38v37.3h-9.44V.93H142.1c6.74,0,11.68,5.84,11.68,12.58S148.84,26.4,142.1,26.4h-12v-7" style="fill: #fff"></path><path id="Path_156" data-name="Path 156" d="M144.35,45.12h9.88l4.35-11.69h18l-2.7-7.34H161.12l6.29-16.77,13,35.8h9.74L172.65.93H161.42L144.35,45.12" style="fill: #fff"></path></g><g id="Smart_Growth_Award_2010" data-name="Smart Growth Award 2010" style="isolation: isolate"><g style="isolation: isolate"><path d="M0,71l1-.2a3.32,3.32,0,0,0,.69,1.78,2.19,2.19,0,0,0,1.68.56,2.08,2.08,0,0,0,1.41-.42,1.31,1.31,0,0,0,.48-1,1.15,1.15,0,0,0-.43-1A6.94,6.94,0,0,0,3,69.88a5.52,5.52,0,0,1-2-1,1.79,1.79,0,0,1-.61-1.41,2.05,2.05,0,0,1,.72-1.56A2.75,2.75,0,0,1,3,65.29a3.21,3.21,0,0,1,2,.58A2.46,2.46,0,0,1,6,67.6l-1,.22a2.06,2.06,0,0,0-.58-1.18A1.92,1.92,0,0,0,3,66.23a1.82,1.82,0,0,0-1.21.36,1.14,1.14,0,0,0-.42.9.94.94,0,0,0,.39.78,6.4,6.4,0,0,0,1.7.74A6.12,6.12,0,0,1,5.72,70.1a2,2,0,0,1,.58,1.51,2.22,2.22,0,0,1-.78,1.73,3.1,3.1,0,0,1-2.15.71A3.09,3.09,0,0,1,0,71Z" style="fill: #fff"></path><path d="M11.36,73.87v-8.4h1.41l2.63,6.44h0l2.63-6.44h1.4v8.4h-1v-7h0l-2.9,7h-.31l-2.89-7h0v7Z" style="fill: #fff"></path><path d="M24.28,73.87l3-8.4h1l3,8.4h-1l-.63-1.65H25.9l-.62,1.65Zm1.92-2.51h3.18L27.79,66.8h0Z" style="fill: #fff"></path><path d="M36.12,73.87v-8.4h3.23a3.11,3.11,0,0,1,2.06.63A2.29,2.29,0,0,1,42.16,68a2.33,2.33,0,0,1-.56,1.62,2.56,2.56,0,0,1-1.51.78L42,73.87H40.85L39,70.43h-1.9v3.44Zm1-4.32h2.17a2.23,2.23,0,0,0,1.35-.38A1.39,1.39,0,0,0,41.16,68c0-1-.63-1.58-1.9-1.58H37.12Z" style="fill: #fff"></path><path d="M49,73.87V66.38h-2.6v-.91h6.18v.91H50v7.49Z" style="fill: #fff"></path><path d="M66.66,74.05a3.48,3.48,0,0,1-1.34-.26A3.31,3.31,0,0,1,64.19,73a3.5,3.5,0,0,1-.79-1.4,6.38,6.38,0,0,1-.29-2,4.49,4.49,0,0,1,1-3.17,3.29,3.29,0,0,1,2.51-1.12,3,3,0,0,1,2.09.76,3.31,3.31,0,0,1,1,2l-1,.18c-.28-1.34-1-2-2.15-2a2.23,2.23,0,0,0-1.79.86,3.75,3.75,0,0,0-.72,2.49,4.24,4.24,0,0,0,.7,2.62,2.18,2.18,0,0,0,1.81.91,2.12,2.12,0,0,0,1.64-.65,2.48,2.48,0,0,0,.58-1.8H66.77v-.91h3.11v.82A3.53,3.53,0,0,1,69,73.12,3.07,3.07,0,0,1,66.66,74.05Z" style="fill: #fff"></path><path d="M75.12,73.87v-8.4h3.23a3.11,3.11,0,0,1,2.06.63A2.29,2.29,0,0,1,81.16,68a2.33,2.33,0,0,1-.56,1.62,2.56,2.56,0,0,1-1.51.78L81,73.87H79.85L78,70.43h-1.9v3.44Zm1-4.32h2.17a2.23,2.23,0,0,0,1.35-.38A1.39,1.39,0,0,0,80.16,68c0-1-.63-1.58-1.9-1.58H76.12Z" style="fill: #fff"></path><path d="M89.36,74.05A3.41,3.41,0,0,1,88,73.79,3.22,3.22,0,0,1,86.91,73a3.53,3.53,0,0,1-.81-1.39,6.37,6.37,0,0,1-.3-2,4.56,4.56,0,0,1,1-3.18,3.32,3.32,0,0,1,2.52-1.12,3.22,3.22,0,0,1,2.48,1.15,4.62,4.62,0,0,1,1,3.2,6.26,6.26,0,0,1-.3,2,3.46,3.46,0,0,1-.79,1.38,3.36,3.36,0,0,1-1.12.74A3.55,3.55,0,0,1,89.36,74.05Zm0-.94a2.15,2.15,0,0,0,1.78-.88,4.11,4.11,0,0,0,.68-2.59,4,4,0,0,0-.7-2.53,2.18,2.18,0,0,0-1.76-.88,2.23,2.23,0,0,0-1.79.86,3.77,3.77,0,0,0-.72,2.5,4.25,4.25,0,0,0,.7,2.63A2.21,2.21,0,0,0,89.36,73.11Z" style="fill: #fff"></path><path d="M98.83,73.87l-1.55-8.4h1l1.26,6.93h0l2.09-6.93h1l2.1,6.93h0l1.24-6.93h1l-1.55,8.4h-1.22l-2.13-7h0l-2.11,7Z" style="fill: #fff"></path><path d="M114.23,73.87V66.38h-2.61v-.91h6.18v.91h-2.59v7.49Z" style="fill: #fff"></path><path d="M122.69,73.87v-8.4h1v3.61h3.76V65.47h1v8.4h-1V70h-3.76v3.9Z" style="fill: #fff"></path><path d="M133.25,73.87l3-8.4h1l3,8.4h-1l-.63-1.65h-3.76l-.62,1.65Zm1.92-2.51h3.18l-1.59-4.56h0Z" style="fill: #fff"></path><path d="M145.44,73.87l-1.55-8.4h1l1.26,6.93h0l2.09-6.93h1.05l2.1,6.93h0l1.24-6.93h1l-1.55,8.4h-1.22l-2.13-7h0l-2.11,7Z" style="fill: #fff"></path><path d="M157.33,73.87l3-8.4h1l3,8.4h-1l-.62-1.65H159l-.61,1.65Zm1.92-2.51h3.18l-1.58-4.56h0Z" style="fill: #fff"></path><path d="M169.18,73.87v-8.4h3.22a3.11,3.11,0,0,1,2.06.63,2.29,2.29,0,0,1,.75,1.86,2.33,2.33,0,0,1-.56,1.62,2.54,2.54,0,0,1-1.5.78L175,73.87H173.9l-1.82-3.44h-1.91v3.44Zm1-4.32h2.17a2.28,2.28,0,0,0,1.36-.38,1.42,1.42,0,0,0,.52-1.21c0-1-.64-1.58-1.9-1.58h-2.15Z" style="fill: #fff"></path><path d="M180.33,73.87v-8.4H183a3.65,3.65,0,0,1,1.36.25,3.54,3.54,0,0,1,1.15.74,3.46,3.46,0,0,1,.82,1.32,5.16,5.16,0,0,1,.31,1.87,6.06,6.06,0,0,1-.31,2,3.17,3.17,0,0,1-.85,1.31,3.52,3.52,0,0,1-1.18.68,4.28,4.28,0,0,1-1.37.22Zm1-.92h1.48q2.73,0,2.73-3.3a3.72,3.72,0,0,0-.71-2.43,2.44,2.44,0,0,0-2-.84h-1.55Z" style="fill: #fff"></path><path d="M197.85,73.87v-.76a3.15,3.15,0,0,1,.44-1.8,4.94,4.94,0,0,1,1.87-1.4l.68-.38c.11-.06.28-.16.51-.31a2.65,2.65,0,0,0,.46-.33,4,4,0,0,0,.27-.33,1,1,0,0,0,.21-.41,1.77,1.77,0,0,0,.05-.48,1.49,1.49,0,0,0-.42-1,1.72,1.72,0,0,0-1.28-.43,1.79,1.79,0,0,0-1.33.51,2.11,2.11,0,0,0-.54,1.43l-1-.1a2.78,2.78,0,0,1,.83-2,2.87,2.87,0,0,1,2-.72,2.63,2.63,0,0,1,2,.7,2.37,2.37,0,0,1,.69,1.73,2.86,2.86,0,0,1-.15,1,2.11,2.11,0,0,1-.57.77A5.61,5.61,0,0,1,202,70l-.82.46-.17.1-.39.21-.35.19-.28.16a1.9,1.9,0,0,0-.27.17l-.19.15-.2.18-.13.18a2.09,2.09,0,0,0-.24,1.12h4.42v1Z" style="fill: #fff"></path><path d="M211.22,74.05a2.66,2.66,0,0,1-2.3-1.17,5.67,5.67,0,0,1-.83-3.32,5.09,5.09,0,0,1,.86-3.17,2.74,2.74,0,0,1,2.27-1.1,2.7,2.7,0,0,1,2.26,1.1,5,5,0,0,1,.86,3.17,5.6,5.6,0,0,1-.83,3.32A2.64,2.64,0,0,1,211.22,74.05Zm-1.57-1.86a1.78,1.78,0,0,0,3.14,0,5.36,5.36,0,0,0,.54-2.64,4.61,4.61,0,0,0-.55-2.48,1.84,1.84,0,0,0-3.12,0,4.64,4.64,0,0,0-.55,2.49A5.36,5.36,0,0,0,209.65,72.19Z" style="fill: #fff"></path><path d="M221,73.87V66.61l-1.81,1.14V66.67l1.93-1.2h.8v8.4Z" style="fill: #fff"></path><path d="M231,74.05a2.68,2.68,0,0,1-2.31-1.17,5.67,5.67,0,0,1-.82-3.32,5,5,0,0,1,.86-3.17,2.88,2.88,0,0,1,4.53,0,5.09,5.09,0,0,1,.86,3.17,5.67,5.67,0,0,1-.83,3.32A2.65,2.65,0,0,1,231,74.05Zm-1.57-1.86a1.78,1.78,0,0,0,3.14,0,5.36,5.36,0,0,0,.54-2.64,4.61,4.61,0,0,0-.55-2.48,1.84,1.84,0,0,0-3.12,0,4.64,4.64,0,0,0-.55,2.49A5.36,5.36,0,0,0,229.43,72.19Z" style="fill: #fff"></path></g></g></g></g></g></svg> 